# xmcd
#
# Track frame offsets:
# 150
# 22992
# 41424
# 63372
# 83902
# 99608
# 124180
# 140268
# 161370
# 177547
# 190272
# 205998
# 224725
# 245870
#
# Disc length: 3518 seconds
#
#
# Revision: 7
# Processed by: cddbd v1.5.1PL0 Copyright (c) Steve Scherf et al.
# Submitted via: FreeRIP 2.90 
#
DISCID=cd0dbc0e
DTITLE=Kenny Chesney - When The Sun Goes Down
DYEAR=2004
DGENRE=Country
TTITLE0=There Goes My Life
TTITLE1=I Go Back
TTITLE2=When The Sun Goes Down
TTITLE3=The Woman With You
TTITLE4=Some People Change
TTITLE5=Anything But Mine
TTITLE6=Keg In The Closet
TTITLE7=When I Think About Leaving
TTITLE8=Being Drunk's A Lot Like Loving You
TTITLE9=Outta Here
TTITLE10=Old Blue Chair
TTITLE11=Live Those Songs (Live)
TTITLE12=What I Need To Do (Live)
TTITLE13=Please Come To Boston (Live)
EXTD=YEAR: 2004
EXTT0=
EXTT1=
EXTT2=
EXTT3=
EXTT4=
EXTT5=
EXTT6=
EXTT7=
EXTT8=
EXTT9=
EXTT10=
EXTT11=
EXTT12=
EXTT13=
PLAYORDER=
